<svg width="629" height="531" viewBox="0 0 629 531" fill="none" xmlns="http://www.w3.org/2000/svg">
<path d="M473 2.38306C473 7.31635 477 19.3164 481.8 28.9164C490.467 46.1164 506.466 61.4497 523.8 69.183C530.6 72.1164 531.533 73.183 539.533 86.5164C544.2 94.383 547.667 101.05 547.266 101.45C546.867 101.85 544.6 100.383 542.2 98.2497C528.466 86.2497 511.4 78.6497 495.267 77.0497C483.933 75.983 483.8 77.3164 493.533 89.4497C507.267 106.516 526.6 118.516 548.333 123.183C554.733 124.65 560.2 125.983 560.466 126.383C562.466 128.25 571.667 165.05 571.667 170.916C571.667 172.25 569.4 169.45 566.733 164.65C556.466 147.183 537.933 132.783 522.466 130.516L516.6 129.583L517.4 133.716C518.733 140.65 527.266 157.05 533.667 165.45C541.8 176.116 552.867 185.05 565.533 191.583L576.067 196.916L575.266 219.05C574.733 231.183 573.933 241.583 573.266 242.25C572.6 242.916 571.4 240.25 570.466 236.383C566.466 219.05 552.867 199.316 539.8 192.25L533 188.516V197.983C533 220.516 543.4 243.183 562.067 261.716L570.6 270.116L563.667 290.383C555 315.583 554.466 316.65 554.333 307.316C554.2 296.516 551.133 280.916 547.4 272.65C544.2 265.716 532.733 251.316 530.333 251.316C527.8 251.316 526.067 266.916 526.6 283.183C527.266 302.65 530.867 315.05 539.8 330.25C544.466 338.116 544.867 339.716 543.533 342.25C540.733 347.45 519.266 379.316 518.867 378.916C518.6 378.65 519.4 375.583 520.6 371.983C523.667 362.116 523.667 338.116 520.6 328.65C518.067 320.916 511.8 310.65 509.667 310.65C508.066 310.65 503.133 322.783 500.066 334.25C496.733 346.383 496.867 375.183 500.2 389.05C502.733 399.183 502.733 399.316 500.2 402.25C495.667 407.316 467.267 431.316 466.6 430.65C466.2 430.25 466.867 428.916 467.933 427.716C471.8 423.316 478.333 408.65 480.467 399.716C483.533 386.65 481.133 360.65 477 360.65C474.733 360.65 463.8 375.583 458.467 385.983C451.133 400.25 447.667 412.25 445.933 430.65L444.333 446.65L423.667 456.783C412.333 462.383 402.867 466.916 402.733 466.783C402.6 466.65 405.933 462.783 410.333 458.25C423.667 444.116 430.467 429.316 432.467 409.583C433.133 402.65 432.867 400.65 431.533 400.65C428.733 400.65 411 414.916 404.733 422.383C391.933 437.45 385.533 449.316 381.533 464.916C379 475.316 382.6 473.45 347 482.783C333.8 486.116 320.733 489.583 318.067 490.25C313.8 491.45 309.533 490.65 287.4 484.65C246.733 473.85 249.533 475.05 247.667 466.916C243.533 449.316 235 434.516 220.467 419.583C212.467 411.316 199 400.65 196.467 400.65C195.133 400.65 195.533 413.45 197.133 420.916C199.267 431.45 206.467 445.45 215 455.716C219 460.65 222.2 464.65 221.933 464.65C221.533 464.65 212.6 460.516 201.8 455.316L182.333 446.116V436.383C182.2 411.583 173.933 388.516 158.067 367.583C155.133 363.85 152.2 360.65 151.533 360.65C149.4 360.65 146.333 374.65 146.333 384.65C146.333 397.316 148.867 407.183 155.267 419.583C158.067 424.916 160.6 429.85 160.867 430.516C161.133 431.183 153.4 424.916 143.8 416.516L126.067 401.316L126.733 395.983C127.133 393.05 128.467 386.116 129.667 380.65C133.8 362.383 130.733 335.316 122.333 315.983L119.4 309.316L115.533 313.983C109.933 320.516 106.467 330.916 105.533 343.85C104.6 354.783 106.467 370.383 109.267 375.716C109.933 377.05 110.2 378.516 109.8 378.916C109 379.716 85.5332 344.383 84.3332 340.65C83.9332 339.183 85.1332 335.716 87.5332 331.983C96.5998 317.716 102.333 296.916 102.333 278.783C102.333 269.983 100.333 254.783 98.7332 252.25C97.5332 250.25 88.3332 259.183 83.6665 266.783C77.5332 276.916 74.4665 289.183 74.4665 303.85C74.3332 311.05 73.7999 315.316 73.1332 314.516C71.6665 313.05 58.3332 274.516 58.3332 271.716C58.3332 270.65 62.9999 264.783 68.7332 258.65C84.9998 241.45 93.7999 222.116 95.2665 200.116L96.0665 188.25L89.1332 192.116C75.2665 199.583 64.1999 215.05 57.6665 235.983L54.7332 245.316L53.7999 235.316C53.2665 229.85 52.9999 218.783 53.2665 210.65L53.6665 195.983L62.8665 191.05C75.7999 183.983 85.5332 176.116 93.2665 166.65C99.6665 158.65 109.4 140.783 111.133 133.45L112.067 129.583L105.8 130.383C90.9998 132.516 72.5998 146.25 63.1332 162.516C60.3332 167.316 57.6665 171.183 57.3998 170.916C56.7332 170.116 60.5998 152.383 64.5998 138.25C67.6665 127.316 68.4665 125.85 71.5332 125.183C93.2665 120.383 107.8 113.85 121.267 102.783C130.333 95.3164 142.867 79.8497 141.533 77.8497C140.467 76.1164 132.067 76.383 122.467 78.6497C111 81.4497 99.1332 87.4497 89.1332 95.4497C80.3332 102.516 79.3998 102.25 83.7999 94.383C93.5332 76.5164 96.9998 72.783 108.2 67.0497C131.4 55.0497 148.867 31.7164 154.867 4.24969C156.067 -0.683655 153.533 -0.550293 141.133 5.58301C133.4 9.31635 128.333 13.3163 119.667 21.983C107.267 34.383 101.933 43.0497 96.4665 59.7164C94.5998 65.3164 90.7332 73.4497 87.9332 77.583C84.9998 81.8497 80.7332 88.783 78.3332 93.0497C73.9332 100.783 71.7999 102.516 74.1999 96.383C77.1332 88.6497 80.0665 65.4497 79.1332 56.2497C77.7999 42.383 71.7999 20.6497 69.1332 20.6497C66.9998 20.6497 58.1998 39.583 54.8665 51.183C51.6665 62.383 51.3998 65.0497 52.0665 79.7164C52.5998 95.8497 55.3998 107.316 61.3998 118.65C63.1332 122.116 62.9999 123.45 58.0665 137.583C55.2665 145.983 52.5998 156.383 52.0665 160.783C51.6665 165.183 50.8665 169.05 50.3332 169.316C49.7999 169.583 48.9999 164.916 48.5998 158.916C47.2665 139.583 38.3332 117.583 26.8665 104.916L21.2665 98.6497L19.7999 103.983C16.9999 113.716 16.4665 135.05 18.8665 145.983C21.5332 159.05 31.1332 177.983 39.6665 187.583L46.4665 195.183L46.7332 219.316C46.8665 232.516 46.5998 242.383 46.0665 241.05C45.5332 239.716 43.7999 235.316 42.3332 231.183C38.8665 221.716 30.8665 209.183 23.6665 201.983C16.9999 195.316 2.46652 185.716 0.733188 186.783C-1.00015 187.85 0.466521 199.983 3.79985 212.65C9.53319 233.85 24.5999 254.25 42.8665 265.316C47.9332 268.383 51.9332 271.716 52.1999 273.316C55.1332 287.583 58.5998 300.383 61.5332 307.316C63.3998 311.983 64.7332 315.983 64.4665 316.25C64.1999 316.516 62.3332 314.116 60.3332 311.05C50.0665 295.583 31.6665 281.583 15.9332 277.183C11.3999 275.85 7.26652 275.316 6.73319 275.716C5.26652 277.316 12.8665 295.316 18.9999 304.65C22.3332 309.716 28.5999 316.916 32.7332 320.65C41.1332 328.25 60.3332 338.116 71.3998 340.65L78.3332 342.25L83.7999 353.183C86.7332 359.05 91.9332 367.45 95.2665 371.716C98.4665 376.116 101 379.85 100.6 380.116C100.333 380.383 96.8665 378.25 92.8665 375.183C83.6665 368.383 71.9332 362.65 61.6665 359.983C53.1332 357.85 34.3332 357.183 34.3332 359.183C34.3332 359.85 36.8665 363.85 40.0665 368.25C56.8665 391.05 83.2665 404.516 111 404.65H120.467L127 411.45C130.733 415.183 138.467 422.516 144.2 427.716C150.067 432.916 153.667 436.65 152.2 436.25C150.867 435.716 144.333 433.45 137.667 431.183C127.4 427.45 123.8 426.783 112.333 426.783C99.1332 426.65 82.3332 429.316 82.3332 431.45C82.3332 433.583 95.7999 443.316 105.4 447.983C125.933 457.983 145 460.116 167.133 455.05C178.2 452.516 180.333 452.383 182.733 453.983C184.333 454.916 193.267 459.716 202.467 464.516L219.267 473.316H199.133C176.867 473.316 171.933 474.65 155.133 484.383C147.8 488.783 147.4 489.183 149.8 490.916C155.8 495.316 169.667 498.25 187 498.916C207.933 499.85 219 497.316 237.133 487.716L248.733 481.716L257.133 484.383C261.8 485.983 271.933 488.783 279.667 490.783C295.533 494.783 298.867 496.116 295.667 497.05C268.067 505.85 231.533 523.583 234.6 526.783C235 527.05 238.867 528.116 243.267 528.916L251.267 530.383L263.4 523.45C276.066 515.983 309.133 501.983 313.667 501.983C318.067 501.983 350.2 515.583 363.533 523.183L376.067 530.25L383.4 528.783C387.533 527.983 391 527.05 391.4 526.65C393.8 524.25 362.733 508.116 341.267 500.65C334.467 498.25 329.133 496.116 329.4 495.85C329.667 495.583 338.867 492.916 349.8 489.983C360.733 487.05 372.067 483.983 375 483.183C380.067 481.716 380.867 481.983 389.667 487.05C404.733 495.85 413.8 498.383 433 499.05C451 499.583 461.8 497.85 474.467 492.516C482.6 488.916 482.066 487.983 467.533 480.783C453.533 473.716 445.133 472.25 425.133 472.916C413.667 473.45 409.4 473.183 411.133 472.25C412.6 471.45 421.133 466.783 430.333 461.583C448.333 451.583 446.2 451.983 464.333 455.85C483.267 459.983 502.066 457.45 521.667 447.983C533.533 442.383 546.6 432.516 544.733 430.65C544.2 430.116 538.067 428.783 531 427.583C515.667 425.05 501.267 426.516 486.6 432.116C472.733 437.316 471.8 437.45 477.667 432.516C480.6 430.116 488.467 422.916 495 416.516L507 405.05L520.333 404.25C542.333 403.183 561.133 395.45 577.133 381.05C582.867 375.85 594.333 361.316 594.333 359.183C594.333 357.183 575.533 357.85 567 359.983C555.4 362.916 544.2 368.783 534.067 377.316C529 381.316 525 384.383 525 384.116C525 383.716 528.333 378.783 532.466 373.05C536.6 367.316 542.2 358.116 545 352.516C549.933 342.783 550.466 342.25 556.6 340.65C579.8 334.383 602.067 317.85 613 298.65C616.333 292.783 622.333 277.983 622.333 275.583C622.333 273.983 610.2 277.183 602.6 280.65C590.6 286.25 579.8 295.05 571 306.516C566.733 312.116 563.133 316.65 562.867 316.65C562.6 316.65 563.933 313.316 565.667 309.316C568.733 302.383 573.133 286.916 574.867 276.383C575.667 271.983 576.867 270.65 585.266 265.183C609.133 249.85 625.266 223.05 627.266 195.583L628.067 185.716L621.533 189.05C613.4 193.183 602.2 203.05 597 210.65C591.667 218.383 583.8 234.25 582.867 239.183C582.333 241.45 581.533 243.316 581 243.316C580.466 243.316 580.6 240.116 581.266 236.25C582.067 232.516 582.333 221.45 581.933 211.716L581.4 194.116L585.933 189.716C595.667 180.383 605 163.716 608.333 149.716C611.8 135.05 610.333 99.3164 606.2 99.3164C605.533 99.3164 602.067 103.316 598.333 108.25C588.2 122.116 579.667 146.116 579.667 160.916C579.667 169.85 577.533 168.916 576.6 159.45C576.067 155.183 573.4 145.05 570.6 136.916L565.4 122.25L569.266 113.316C580.867 87.0497 579 52.383 564.733 28.783C562.333 24.783 559.8 21.4497 559 21.4497C558.333 21.3164 555.933 26.383 553.8 32.6497C548.867 47.4497 547.667 68.2497 550.867 83.3164C555 101.85 554.867 101.85 547.533 89.3164C543.8 82.6497 539.266 75.4497 537.667 73.3164C536.067 71.0497 533.266 65.0497 531.667 59.983C522.6 31.7164 503.133 10.783 476.6 0.78302C473.4 -0.550293 473 -0.28363 473 2.38306Z" fill="#4F46E5"/>
<path d="M306.333 68.1165C297.8 74.6498 277.933 86.2498 267 91.0498C245.4 100.383 211.533 109.716 188.333 112.783C181.8 113.583 175.533 114.916 174.733 115.583C173.4 116.65 173 127.45 173 161.183C173 225.316 175.533 250.383 184.467 277.45C200.333 325.316 239.4 369.716 294.067 402.25C302.733 407.316 311 411.716 312.467 412.116C315.933 413.05 322.333 409.85 339.667 398.916C400.067 360.916 438.6 309.983 450.333 252.783C453.933 235.05 455.667 203.983 455.667 156.516C455.667 126.516 455.267 116.65 454.067 115.583C453.133 114.916 446.6 113.583 439.667 112.65C398.733 107.316 351 89.8498 324.2 70.2498C318.867 66.3831 314.067 63.3164 313.533 63.3164C312.867 63.3164 309.667 65.4498 306.333 68.1165ZM282.467 157.45C291.133 159.983 303.933 167.45 307.667 172.25C310.2 175.583 310.333 177.45 310.333 224.116C310.333 252.116 309.8 272.65 309.133 272.65C308.467 272.65 302.867 270.25 296.733 267.316C290.733 264.383 282.067 261.316 277.667 260.516C269.933 259.05 246.2 259.583 238.067 261.45L234.333 262.25V208.783V155.316H254.733C269.533 155.316 277.133 155.85 282.467 157.45ZM394.333 208.783V262.383L389.4 261.45C386.6 261.05 378.6 260.25 371.533 259.716C354.6 258.65 343.933 260.783 329.267 268.116C322.867 271.316 317.533 273.983 317.267 273.983C317 273.983 317 251.183 317.267 223.316L317.667 172.65L321.667 169.316C327.667 164.516 337.933 159.183 344.867 157.183C348.6 156.25 359.667 155.45 372.733 155.45L394.333 155.316V208.783ZM224.6 173.716C225.933 174.516 226.333 186.383 226.6 222.783L227 270.65L254.333 270.916C269.4 271.05 283.533 271.583 285.933 271.983C288.2 272.383 295.133 275.983 301.267 279.983C307.267 283.983 313.133 287.316 314.067 287.316C315 287.316 320.067 284.383 325.4 280.916C330.733 277.316 337 273.716 339.533 272.916C342.333 271.85 353.8 271.316 370.467 271.316C384.867 271.316 397.667 270.916 398.867 270.516C400.733 269.85 401 264.25 401 221.983C401 180.783 401.267 174.116 403 173.45C404.067 173.05 405.933 173.05 407 173.45C408.733 174.116 409 181.183 409 225.45C409 272.783 408.867 276.65 406.733 277.85C405.4 278.516 392.333 278.916 377.667 278.65C363 278.516 348.467 278.783 345.267 279.316C341.8 279.983 334.867 283.45 327.267 288.516C320.467 292.916 314.467 296.65 313.933 296.65C313.267 296.65 308.6 293.716 303.267 290.116C285.133 277.983 288.067 278.65 254.6 278.916C238.2 279.05 223.267 278.65 221.533 277.983L218.333 276.65V225.45C218.333 174.783 218.467 173.316 222.333 172.783C222.733 172.783 223.8 173.183 224.6 173.716Z" fill="#4F46E5"/>
</svg>
